#!OML:ASF H:\ManfredETheater\Project 1\Capture day 1\Session 1\subject.ASF
:FULLY-SPECIFIED
:DEGREES
257
root -6.60908 8.35428 -3.52472 -13.8474 72.608 -14.5032
lowerback 66.2874 -3.65106 -4.97891
upperback 13.4438 -4.11209 1.44154
thorax -5.89647 -1.14178 5.34285
lowerneck 9.34332 -18.9486 -14.8286
upperneck -13.742 -25.8403 23.5112
head -0.38379 -13.8747 9.07536
rclavicle 8.26944e-014 -6.04305e-014
rhumerus -22.3977 -7.49199 -67.1219
rradius 95.0692
rwrist -18.5379
rhand -25.2516 -10.5832
rfingers 7.12502
rthumb 1.26855 -40.5592
lclavicle 8.26944e-014 -6.04305e-014
lhumerus -8.03626 7.39194 24.2813
lradius 89.7938
lwrist 3.60732
lhand -26.0597 -6.25976
lfingers 7.12502
lthumb 0.488039 23.7194
rfemur -81.0529 -42.4842 -4.09695
rtibia 120.673
rfoot -27.315 8.56064
rtoes -41.779
lfemur -78.2756 49.602 18.4082
ltibia 131.394
lfoot -37.3472 -44.811
ltoes -21.2208
258
root -6.62829 8.3368 -3.42252 -12.548 72.9139 -13.247
lowerback 66.4608 -3.87394 -4.96269
upperback 13.3918 -4.34841 1.31522
thorax -5.93956 -1.22304 5.29065
lowerneck 9.38673 -19.0986 -14.8151
upperneck -13.7076 -26.058 23.508
head -0.344361 -13.9852 9.04564
rclavicle 1.59028e-015 3.65764e-014
rhumerus -22.1696 -7.69671 -67.1512
rradius 95.1853
rwrist -18.6362
rhand -25.6218 -10.6978
rfingers 7.12502
rthumb 0.911047 -40.6756
lclavicle 1.59028e-015 3.65764e-014
lhumerus -8.14428 7.06591 24.1171
lradius 89.6735
lwrist 3.47443
lhand -25.9716 -6.30282
lfingers 7.12502
lthumb 0.573131 23.6762
rfemur -81.735 -42.9616 -3.81409
rtibia 121.508
rfoot -27.8208 7.76169
rtoes -41.6115
lfemur -77.9727 48.8713 18.5981
ltibia 130.943
lfoot -37.5942 -44.5051
ltoes -22.1579
259
root -6.64769 8.32341 -3.32068 -11.2517 73.2097 -12.0714
lowerback 66.5407 -4.12194 -4.89333
upperback 13.358 -4.57683 1.1992
thorax -5.96913 -1.3024 5.22545
lowerneck 9.43915 -19.2388 -14.8037
upperneck -13.6995 -26.2606 23.5098
head -0.315617 -14.0893 9.02249
rclavicle -1.90833e-014 -2.22639e-014
rhumerus -21.955 -7.88498 -67.1684
rradius 95.3027
rwrist -18.785
rhand -25.9509 -10.8268
rfingers 7.12502
rthumb 0.59315 -40.8057
lclavicle -1.90833e-014 -2.22639e-014
lhumerus -8.25877 6.76081 24.0027
lradius 89.5285
lwrist 3.45896
lhand -25.7961 -6.29828
lfingers 7.12502
lthumb 0.742668 23.6802
rfemur -82.5466 -43.4391 -3.36363
rtibia 122.332
rfoot -28.2162 6.97829
rtoes -41.3342
lfemur -77.7758 48.1225 18.7372
ltibia 130.459
lfoot -37.8016 -44.1717
ltoes -23.1239
260
root -6.66726 8.31381 -3.21904 -9.91286 73.4904 -10.9294
lowerback 66.5212 -4.3795 -4.78934
upperback 13.345 -4.79188 1.09752
thorax -5.9812 -1.37884 5.15725
lowerneck 9.48906 -19.3725 -14.7954
upperneck -13.7175 -26.4517 23.5124
head -0.295577 -14.1877 9.00291
rclavicle -1.90833e-014 6.59965e-014
rhumerus -21.7532 -8.04933 -67.167
rradius 95.4272
rwrist -18.9774
rhand -26.2464 -10.9637
rfingers 7.12502
rthumb 0.307719 -40.9432
lclavicle -1.90833e-014 6.59965e-014
lhumerus -8.38353 6.4887 23.9454
lradius 89.3658
lwrist 3.5274
lhand -25.5441 -6.25386
lfingers 7.12502
lthumb 0.986031 23.7236
rfemur -83.4679 -43.9041 -2.78156
rtibia 123.132
rfoot -28.5497 6.21597
rtoes -41.0327
lfemur -77.6797 47.3757 18.8206
ltibia 129.947
lfoot -37.9665 -43.8145
ltoes -24.122
261
root -6.68701 8.30892 -3.11745 -8.42809 73.7532 -9.6951
lowerback 66.4227 -4.62436 -4.69036
upperback 13.3492 -4.99543 1.00663
thorax -5.97658 -1.45357 5.09902
lowerneck 9.5435 -19.4961 -14.7812
upperneck -13.7684 -26.6255 23.5143
head -0.2898 -14.2783 8.98801
rclavicle 4.13472e-014 5.80451e-014
rhumerus -21.5593 -8.18491 -67.1565
rradius 95.5551
rwrist -19.1919
rhand -26.5145 -11.1051
rfingers 7.12502
rthumb 0.0487978 -41.0848
lclavicle 4.13472e-014 5.80451e-014
lhumerus -8.52999 6.25662 23.9376
lradius 89.1913
lwrist 3.64359
lhand -25.2345 -6.17463
lfingers 7.12502
lthumb 1.2851 23.8012
rfemur -84.4387 -44.3334 -2.1631
rtibia 123.886
rfoot -28.8448 5.55781
rtoes -40.6775
lfemur -77.6396 46.6261 18.8314
ltibia 129.405
lfoot -38.075 -43.434
ltoes -25.1045
262
root -6.70673 8.30931 -3.01554 -6.74483 74.002 -8.2948
lowerback 66.2726 -4.85091 -4.61662
upperback 13.3649 -5.19467 0.922187
thorax -5.95898 -1.52919 5.05696
lowerneck 9.60148 -19.606 -14.7591
upperneck -13.8488 -26.777 23.5174
head -0.298023 -14.3588 8.9786
rclavicle -3.18055e-015 5.24792e-014
rhumerus -21.3727 -8.28736 -67.1483
rradius 95.6843
rwrist -19.399
rhand -26.7522 -11.2404
rfingers 7.12502
rthumb -0.18076 -41.2201
lclavicle -3.18055e-015 5.24792e-014
lhumerus -8.70319 6.07024 23.97
lradius 89.001
lwrist 3.77287
lhand -24.9091 -6.08855
lfingers 7.12502
lthumb 1.59939 23.8852
rfemur -85.3981 -44.7318 -1.57486
rtibia 124.578
rfoot -29.1325 5.04445
rtoes -40.258
lfemur -77.6239 45.8624 18.7616
ltibia 128.83
lfoot -38.1224 -43.0367
ltoes -26.0343
